<svg width="400" height="400" viewBox="0 0 400 400" fill="none" xmlns="http://www.w3.org/2000/svg">
<path d="M57 116.502C57 85.1109 78.4909 57.8006 109.002 50.4189V50.4189C115.63 48.8154 122.461 48.2181 129.266 48.647L216.435 54.1409C295.457 59.1213 357 124.665 357 203.844V213C357 295.843 289.843 363 207 363V363C124.157 363 57 295.843 57 213V116.502Z" fill="url(#paint0_linear_13_3)"/>
<g filter="url(#filter0_d_13_3)">
<path d="M225.65 159.075C230.879 161.326 233.394 164.049 233.194 167.242C233.129 168.28 232.527 170.207 231.389 173.021L204.231 238.05C204.036 238.599 203.714 239.26 203.265 240.034C202.815 240.807 201.67 241.817 199.828 243.065C198.072 244.237 195.996 244.748 193.6 244.598C191.285 244.453 189.289 243.687 187.612 242.3C186.021 240.837 184.985 239.45 184.507 238.137L173.082 195.94C162.579 221.574 157.233 234.625 157.043 235.094C156.853 235.563 156.452 236.22 155.838 237.063C155.224 237.906 154.535 238.665 153.771 239.338C151.82 241.059 149.567 241.84 147.012 241.68C144.457 241.52 142.378 240.789 140.777 239.486C139.255 238.188 138.252 236.923 137.768 235.69L137.042 233.841L118.091 165.924C117.378 163.234 117.061 161.25 117.141 159.973C117.342 156.779 120.174 154.432 125.638 152.93C128.004 152.277 130.105 152.008 131.941 152.123C133.857 152.243 135.255 152.971 136.133 154.309C137.091 155.652 137.886 157.665 138.52 160.35L149.188 201.177L164.711 162.592C166.039 159.308 168.22 157.121 171.254 156.028C172.566 155.549 174.221 155.372 176.217 155.497C178.293 155.627 180.166 156.426 181.838 157.893C183.515 159.281 184.552 160.628 184.951 161.936L196.121 204.357L211.816 164.941C212.57 163.145 213.174 161.82 213.628 160.967C214.082 160.114 214.853 159.32 215.941 158.587C217.114 157.779 218.499 157.424 220.096 157.525C221.693 157.625 223.544 158.141 225.65 159.075ZM270.371 205.281C281.852 217.783 289.963 227.149 294.703 233.377C297.152 236.496 298.312 239.094 298.182 241.17C298.057 243.166 296.31 245.461 292.941 248.056C289.578 250.57 286.858 251.763 284.782 251.633C282.786 251.508 280.456 249.678 277.791 246.145L253.326 214.433L251.863 237.788C251.743 239.704 251.576 241.096 251.361 241.964C251.226 242.838 250.802 243.853 250.088 245.011C248.835 247.096 245.654 247.979 240.544 247.659C234.955 247.309 231.776 245.587 231.008 242.493C230.609 241.185 230.497 239.134 230.672 236.34L234.843 169.75C234.958 167.914 235.083 166.559 235.218 165.686C235.438 164.738 235.905 163.685 236.618 162.527C237.871 160.442 241.053 159.559 246.163 159.879C251.752 160.229 254.973 161.914 255.825 164.933C256.14 166.315 256.209 168.404 256.034 171.198L254.601 194.073C266.225 182.537 275.636 173.067 282.833 165.663C285.832 162.564 288.37 161.08 290.446 161.21C292.522 161.34 295.069 162.902 298.088 165.897C301.112 168.812 302.558 171.307 302.428 173.383C302.303 175.379 300.956 177.699 298.385 180.344C293.419 185.403 285.773 192.299 275.447 201.03L270.371 205.281Z" fill="white"/>
</g>
<defs>
<filter id="filter0_d_13_3" x="108.077" y="150.392" width="199.064" height="110.036" filterUnits="userSpaceOnUse" color-interpolation-filters="sRGB">
<feFlood flood-opacity="0" result="BackgroundImageFix"/>
<feColorMatrix in="SourceAlpha" type="matrix" values="0 0 0 0 0 0 0 0 0 0 0 0 0 0 0 0 0 0 127 0" result="hardAlpha"/>
<feOffset dy="4"/>
<feGaussianBlur stdDeviation="2"/>
<feComposite in2="hardAlpha" operator="out"/>
<feColorMatrix type="matrix" values="0 0 0 0 0 0 0 0 0 0 0 0 0 0 0 0 0 0 0.25 0"/>
<feBlend mode="normal" in2="BackgroundImageFix" result="effect1_dropShadow_13_3"/>
<feBlend mode="normal" in="SourceGraphic" in2="effect1_dropShadow_13_3" result="shape"/>
</filter>
<linearGradient id="paint0_linear_13_3" x1="65.5" y1="100" x2="329.5" y2="303.5" gradientUnits="userSpaceOnUse">
<stop stop-color="#FFE53B"/>
<stop offset="0.755208" stop-color="#FD3838"/>
</linearGradient>
</defs>
</svg>
